<svg xmlns="http://www.w3.org/2000/svg" viewBox="0 0 800 400" width="800" height="400">
  <defs>
    <radialGradient id="bg" cx="50%" cy="60%" r="70%">
      <stop offset="0%" stop-color="#141418"/>
      <stop offset="100%" stop-color="#0a0a0d"/>
    </radialGradient>
    <linearGradient id="line-green" x1="0%" y1="0%" x2="100%" y2="0%">
      <stop offset="0%" stop-color="#39ff14" stop-opacity="0.25"/>
      <stop offset="100%" stop-color="#39ff14" stop-opacity="1"/>
    </linearGradient>
    <linearGradient id="line-gray" x1="0%" y1="0%" x2="100%" y2="0%">
      <stop offset="0%" stop-color="#64748b" stop-opacity="0.3"/>
      <stop offset="100%" stop-color="#64748b" stop-opacity="0.55"/>
    </linearGradient>
    <filter id="glow-green">
      <feGaussianBlur stdDeviation="5" result="blur"/>
      <feMerge><feMergeNode in="blur"/><feMergeNode in="SourceGraphic"/></feMerge>
    </filter>
    <filter id="glow-dot">
      <feGaussianBlur stdDeviation="8" result="blur"/>
      <feMerge><feMergeNode in="blur"/><feMergeNode in="SourceGraphic"/></feMerge>
    </filter>
  </defs>

  <!-- Background -->
  <rect width="800" height="400" fill="url(#bg)"/>

  <!-- Subtle grid -->
  <g opacity="0.04" stroke="#ffffff" stroke-width="0.5">
    <line x1="0" y1="80" x2="800" y2="80"/>
    <line x1="0" y1="160" x2="800" y2="160"/>
    <line x1="0" y1="240" x2="800" y2="240"/>
    <line x1="200" y1="0" x2="200" y2="310"/>
    <line x1="400" y1="0" x2="400" y2="310"/>
    <line x1="600" y1="0" x2="600" y2="310"/>
  </g>

  <!-- X-axis -->
  <line x1="80" y1="300" x2="730" y2="300" stroke="rgba(255,255,255,0.08)" stroke-width="1"/>


  <!-- Traditionell line (nearly flat) -->
  <path d="M 80,255 C 295,254 508,252 722,250"
        fill="none" stroke="url(#line-gray)" stroke-width="2"/>

  <!-- KI-augmentiert line (exponential) -->
  <path d="M 80,255 C 200,254 295,250 402,238 C 508,218 620,162 722,88"
        fill="none" stroke="url(#line-green)" stroke-width="2.5" filter="url(#glow-green)"/>

  <!-- Green fill area under curve -->
  <path d="M 80,255 C 200,254 295,250 402,238 C 508,218 620,162 722,88 L 722,300 L 80,300 Z"
        fill="#39ff14" opacity="0.03"/>

  <!-- ChatGPT divider -->
  <line x1="402" y1="95" x2="402" y2="300" stroke="rgba(255,255,255,0.05)" stroke-width="1" stroke-dasharray="3,4"/>

  <!-- n8n / KI-Agenten divider -->
  <line x1="615" y1="95" x2="615" y2="300" stroke="rgba(255,255,255,0.05)" stroke-width="1" stroke-dasharray="3,4"/>

  <!-- Endpoint dot at 2026 with glow -->
  <circle cx="722" cy="88" r="7" fill="#39ff14" opacity="0.15" filter="url(#glow-dot)"/>
  <circle cx="722" cy="88" r="4" fill="#0a0a0d" stroke="#39ff14" stroke-width="1.5"/>
  <circle cx="722" cy="88" r="1.5" fill="#39ff14"/>

  <!-- Dashed line to endpoint -->
  <line x1="716" y1="81" x2="716" y2="88" stroke="#39ff14" stroke-width="0.75" stroke-dasharray="2,2" opacity="0.5"/>
</svg>
